<svg t="1741607092070" class="icon" viewBox="0 0 1024 1024" version="1.1" xmlns="http://www.w3.org/2000/svg" p-id="11427" width="256" height="256"><path d="M56.888889 529.066667c0 39.822222 2.844444 79.644444 11.377778 110.933333 8.533333 34.133333 17.066667 62.577778 31.288889 88.177778 14.222222 25.6 31.288889 45.511111 51.2 65.422222 19.911111 19.911111 42.666667 34.133333 68.266666 45.511111 25.6 11.377778 54.044444 22.755556 85.333334 28.444445s62.577778 11.377778 96.711111 14.222222c34.133333 2.844444 68.266667 5.688889 108.088889 5.688889s76.8-2.844444 108.088888-5.688889c34.133333-2.844444 65.422222-8.533333 96.711112-14.222222 31.288889-8.533333 59.733333-17.066667 85.333333-28.444445 25.6-11.377778 48.355556-28.444444 68.266667-45.511111s39.822222-39.822222 51.2-65.422222c14.222222-25.6 25.6-54.044444 31.288888-88.177778 8.533333-34.133333 11.377778-71.111111 11.377778-110.933333 0-73.955556-25.6-136.533333-73.955555-190.577778 2.844444-8.533333 5.688889-14.222222 8.533333-25.6 2.844444-8.533333 5.688889-22.755556 5.688889-39.822222 2.844444-17.066667 0-36.977778-2.844445-56.888889s-8.533333-45.511111-19.911111-68.266667h-28.444444c-11.377778 0-22.755556 2.844444-36.977778 8.533333-14.222222 2.844444-34.133333 11.377778-56.888889 22.755556s-45.511111 25.6-71.111111 42.666667c-42.666667-11.377778-102.4-17.066667-179.2-17.066667-73.955556 0-133.688889 5.688889-179.2 17.066667-19.911111-14.222222-42.666667-28.444444-65.422222-39.822223-22.755556-11.377778-42.666667-19.911111-54.044445-25.6-14.222222-2.844444-28.444444-5.688889-39.822222-5.688888-11.377778 0-19.911111-2.844444-22.755555 0-2.844444 0-5.688889 0-8.533334 2.844444-8.533333 19.911111-14.222222 42.666667-17.066666 62.577778-2.844444 22.755556-2.844444 42.666667-2.844445 56.888889 2.844444 17.066667 2.844444 28.444444 5.688889 39.822222l8.533333 25.6C82.488889 392.533333 56.888889 455.111111 56.888889 529.066667z m110.933333 110.933333c0-42.666667 19.911111-82.488889 59.733334-116.622222 11.377778-11.377778 25.6-19.911111 39.822222-25.6 14.222222-5.688889 34.133333-8.533333 51.2-8.533334h56.888889c17.066667 0 39.822222 2.844444 65.422222 2.844445 25.6 2.844444 48.355556 2.844444 68.266667 2.844444s42.666667 0 68.266666-2.844444c25.6-2.844444 48.355556-2.844444 65.422222-2.844445h56.888889c19.911111 0 36.977778 2.844444 51.2 8.533334 14.222222 5.688889 28.444444 14.222222 39.822223 25.6 39.822222 34.133333 56.888889 73.955556 56.888888 116.622222 0 25.6-2.844444 48.355556-8.533333 68.266667-5.688889 19.911111-14.222222 36.977778-25.6 48.355555-11.377778 14.222222-22.755556 25.6-42.666667 34.133334-17.066667 8.533333-34.133333 17.066667-51.2 22.755555-17.066667 5.688889-36.977778 8.533333-65.422222 11.377778-25.6 2.844444-48.355556 5.688889-71.111111 5.688889h-159.288889c-19.911111 0-42.666667-2.844444-71.111111-5.688889-25.6-2.844444-48.355556-5.688889-65.422222-11.377778-17.066667-5.688889-34.133333-11.377778-51.2-22.755555-17.066667-8.533333-31.288889-19.911111-42.666667-34.133334-8.533333-14.222222-17.066667-31.288889-25.6-48.355555s0-42.666667 0-68.266667z m457.955556-8.533333c0 48.355556 25.6 85.333333 56.888889 85.333333s56.888889-36.977778 56.888889-85.333333-25.6-85.333333-56.888889-85.333334-56.888889 39.822222-56.888889 85.333334z m-341.333334 0c0 48.355556 25.6 85.333333 56.888889 85.333333s56.888889-36.977778 56.888889-85.333333-25.6-85.333333-56.888889-85.333334-56.888889 39.822222-56.888889 85.333334z" fill="#313131" p-id="11428"></path></svg>