<svg t="1741605202140" class="icon" viewBox="0 0 1024 1024" version="1.1" xmlns="http://www.w3.org/2000/svg" p-id="7122" width="256" height="256"><path d="M763.02336 0c160.504686 0 247.497874 69.65248 260.97664 210.177463v610.976914C994.596571 956.790491 914.952777 1024 787.526217 1024H245.967726C107.514149 1024 25.424457 956.793417 0.918674 821.154377c-1.225874-221.172297-1.225874-414.243109 0-576.763611C2.144549 81.870263 89.137737 0 261.895314 0H763.026286z" fill="#00B3FF" p-id="7123"></path><path d="M513.117623 102.4c92.089783 0 322.1504 163.831223 354.725303 204.8 32.571977 40.968777 32.571977 359.19872 0 409.6-32.574903 50.40128-284.253623 204.8-354.725303 204.8-70.474606 0-314.350446-154.39872-354.725303-204.8-40.374857-50.40128-33.993874-357.993326 0-409.6 33.9968-51.606674 262.63552-204.8 354.725303-204.8z" fill="#00A0E3" p-id="7124"></path><path d="M282.445531 257.8432s262.641371 100.436846 297.235018 229.610057l0.772388 2.90816c25.143589 95.366583 15.213714 129.930971-28.215588 183.84896l-1.708618 2.071406c-55.217006 65.383863-214.811794 111.340983-230.078171 115.451611l-0.479817 0.318903-0.280869 0.052663 0.029257-0.023406 0.263315-0.219428-0.315977 0.078994-0.362789 0.087771 1.199543-0.825051 1.255131-0.845531 0.14336-0.093623c14.488137-12.156343 95.782034-82.218423 113.54112-138.24 0.863086-2.720914 1.696914-5.500343 2.49856-8.31488l0.596846-2.115292 0.585143-2.121143c6.7584-24.789577 11.07968-50.412983 11.316663-51.817325l0.008777-0.058515c0.69632 1.000594 32.007314 46.360869 21.357714 86.870309 7.498606-13.47584 11.498057-27.864503 10.316069-43.119177l-0.283795-3.250469c-10.307291-106.282423-113.915611-112.575634-145.539657-151.806537l-2.223543-2.802834C261.664183 380.685166 282.448457 257.8432 282.448457 257.8432z m374.526538 151.385234l1.594514 0.014629c6.404389 0.119954 13.206674 0.980114 20.3776 2.832091l1.708617 0.45056c55.755337 15.017691 47.478491 45.211063 84.918857 60.465737l0.760686 0.315978c10.289737 4.373943 25.921829 14.578834 40.892708 25.184548l2.241098 1.594514c20.48 14.62272 39.154834 29.499977 40.439222 30.523978l0.055589 0.043885-0.043886-0.026331c-1.930971-1.272686-50.439314-32.873326-114.097005-46.439863l-1.971932-0.412526-1.483337-0.28672c-48.888686-8.818103-91.896686 44.66688-110.006857 69.061486l-0.547109 0.740206c-5.749029 7.814583-8.9088 13.019429-8.9088 13.019428-0.099474-0.637806-3.639589-23.730469-9.651931-56.097645l-0.219429-1.155658c-6.30784-32.3584-24.020114-62.414263-24.020114-62.414262a27.179886 27.179886 0 0 1 0.283794-0.330606l0.263315-0.304274c2.048-2.33472 9.689966-10.661303 20.076251-17.147612 9.766034-6.114743 29.772069-19.631543 57.338149-19.631543z" fill="#FFFFFF" p-id="7125"></path></svg>